<svg width="701" height="1006" viewBox="0 0 701 1006" fill="none" xmlns="http://www.w3.org/2000/svg">
<g filter="url(#filter0_dddd_48_70)">
<rect x="259" y="49" width="183" height="54" rx="12" fill="#1976D2"/>
<rect x="260" y="50" width="181" height="52" rx="11" stroke="url(#paint0_linear_48_70)" stroke-width="2"/>
<path d="M305.702 67.0455H308.327V79.4205C308.327 80.5398 308.105 81.4972 307.662 82.2926C307.224 83.0881 306.608 83.696 305.812 84.1165C305.017 84.5312 304.085 84.7386 303.017 84.7386C302.034 84.7386 301.151 84.5597 300.366 84.2017C299.588 83.8437 298.972 83.3239 298.517 82.642C298.068 81.9545 297.844 81.1193 297.844 80.1364H300.46C300.46 80.6193 300.571 81.0369 300.793 81.3892C301.02 81.7415 301.33 82.017 301.722 82.2159C302.119 82.4091 302.574 82.5057 303.085 82.5057C303.642 82.5057 304.114 82.3892 304.5 82.1562C304.892 81.9176 305.19 81.5682 305.395 81.108C305.599 80.6477 305.702 80.0852 305.702 79.4205V67.0455ZM316.989 84.7642C315.762 84.7642 314.691 84.483 313.776 83.9205C312.862 83.358 312.151 82.571 311.646 81.5597C311.14 80.5483 310.887 79.3665 310.887 78.0142C310.887 76.6562 311.14 75.4687 311.646 74.4517C312.151 73.4347 312.862 72.6449 313.776 72.0824C314.691 71.5199 315.762 71.2386 316.989 71.2386C318.217 71.2386 319.288 71.5199 320.203 72.0824C321.117 72.6449 321.828 73.4347 322.333 74.4517C322.839 75.4687 323.092 76.6562 323.092 78.0142C323.092 79.3665 322.839 80.5483 322.333 81.5597C321.828 82.571 321.117 83.358 320.203 83.9205C319.288 84.483 318.217 84.7642 316.989 84.7642ZM316.998 82.625C317.793 82.625 318.453 82.4148 318.975 81.9943C319.498 81.5739 319.884 81.0142 320.134 80.3153C320.39 79.6165 320.518 78.8466 320.518 78.0057C320.518 77.1705 320.39 76.4034 320.134 75.7045C319.884 75 319.498 74.4347 318.975 74.0085C318.453 73.5824 317.793 73.3693 316.998 73.3693C316.197 73.3693 315.532 73.5824 315.004 74.0085C314.481 74.4347 314.092 75 313.836 75.7045C313.586 76.4034 313.461 77.1705 313.461 78.0057C313.461 78.8466 313.586 79.6165 313.836 80.3153C314.092 81.0142 314.481 81.5739 315.004 81.9943C315.532 82.4148 316.197 82.625 316.998 82.625ZM325.456 84.5V71.4091H328.004V84.5H325.456ZM326.743 69.3892C326.3 69.3892 325.919 69.2415 325.601 68.946C325.289 68.6449 325.132 68.2869 325.132 67.8722C325.132 67.4517 325.289 67.0937 325.601 66.7983C325.919 66.4972 326.3 66.3466 326.743 66.3466C327.186 66.3466 327.564 66.4972 327.877 66.7983C328.195 67.0937 328.354 67.4517 328.354 67.8722C328.354 68.2869 328.195 68.6449 327.877 68.946C327.564 69.2415 327.186 69.3892 326.743 69.3892ZM333.501 76.7273V84.5H330.953V71.4091H333.399V73.5398H333.561C333.862 72.8466 334.333 72.2898 334.975 71.8693C335.623 71.4489 336.439 71.2386 337.422 71.2386C338.314 71.2386 339.095 71.4261 339.765 71.8011C340.436 72.1705 340.956 72.7216 341.325 73.4545C341.694 74.1875 341.879 75.0937 341.879 76.1733V84.5H339.331V76.4801C339.331 75.5312 339.083 74.7898 338.589 74.2557C338.095 73.7159 337.416 73.446 336.552 73.446C335.961 73.446 335.436 73.5739 334.975 73.8295C334.521 74.0852 334.16 74.4602 333.893 74.9545C333.632 75.4432 333.501 76.0341 333.501 76.7273ZM358.981 79.071V71.4091H361.537V84.5H359.032V82.233H358.895C358.594 82.9318 358.111 83.5142 357.447 83.9801C356.787 84.4403 355.966 84.6705 354.984 84.6705C354.143 84.6705 353.398 84.4858 352.751 84.1165C352.109 83.7415 351.603 83.1875 351.234 82.4545C350.87 81.7216 350.688 80.8153 350.688 79.7358V71.4091H353.236V79.429C353.236 80.321 353.484 81.0312 353.978 81.5597C354.472 82.0881 355.114 82.3523 355.904 82.3523C356.381 82.3523 356.856 82.233 357.327 81.9943C357.805 81.7557 358.199 81.3949 358.512 80.9119C358.83 80.429 358.986 79.8153 358.981 79.071ZM374.291 74.6051L371.982 75.0142C371.885 74.7187 371.732 74.4375 371.521 74.1705C371.317 73.9034 371.038 73.6847 370.686 73.5142C370.334 73.3437 369.893 73.2585 369.365 73.2585C368.643 73.2585 368.041 73.4205 367.558 73.7443C367.075 74.0625 366.834 74.4744 366.834 74.9801C366.834 75.4176 366.996 75.7699 367.32 76.0369C367.643 76.304 368.166 76.5227 368.888 76.6932L370.967 77.1705C372.172 77.4489 373.07 77.8778 373.66 78.4574C374.251 79.0369 374.547 79.7898 374.547 80.7159C374.547 81.5 374.32 82.1989 373.865 82.8125C373.416 83.4205 372.788 83.8977 371.982 84.2443C371.18 84.5909 370.251 84.7642 369.195 84.7642C367.729 84.7642 366.533 84.4517 365.607 83.8267C364.68 83.196 364.112 82.3011 363.902 81.142L366.365 80.767C366.518 81.4091 366.834 81.8949 367.311 82.2244C367.788 82.5483 368.41 82.7102 369.178 82.7102C370.013 82.7102 370.68 82.5369 371.18 82.1903C371.68 81.8381 371.93 81.4091 371.93 80.9034C371.93 80.4943 371.777 80.1506 371.47 79.8722C371.169 79.5937 370.706 79.3835 370.081 79.2415L367.865 78.7557C366.643 78.4773 365.74 78.0341 365.155 77.4261C364.575 76.8182 364.285 76.0483 364.285 75.1165C364.285 74.3437 364.501 73.6676 364.933 73.0881C365.365 72.5085 365.962 72.0568 366.723 71.733C367.484 71.4034 368.357 71.2386 369.339 71.2386C370.754 71.2386 371.868 71.5455 372.68 72.1591C373.493 72.767 374.03 73.5824 374.291 74.6051ZM393.615 84.8153L392.081 83.2983L397.408 77.9716H384.027V75.7557H397.408L392.081 70.4375L393.615 68.9119L401.567 76.8636L393.615 84.8153Z" fill="white"/>
</g>
<defs>
<filter id="filter0_dddd_48_70" x="0.935028" y="0.176899" width="699.13" height="1004.89" filterUnits="userSpaceOnUse" color-interpolation-filters="sRGB">
<feFlood flood-opacity="0" result="BackgroundImageFix"/>
<feColorMatrix in="SourceAlpha" type="matrix" values="0 0 0 0 0 0 0 0 0 0 0 0 0 0 0 0 0 0 127 0" result="hardAlpha"/>
<feOffset dy="39.5235"/>
<feGaussianBlur stdDeviation="44.1733"/>
<feColorMatrix type="matrix" values="0 0 0 0 0 0 0 0 0 0 0 0 0 0 0 0 0 0 0.1 0"/>
<feBlend mode="normal" in2="BackgroundImageFix" result="effect1_dropShadow_48_70"/>
<feColorMatrix in="SourceAlpha" type="matrix" values="0 0 0 0 0 0 0 0 0 0 0 0 0 0 0 0 0 0 127 0" result="hardAlpha"/>
<feOffset dy="160.419"/>
<feGaussianBlur stdDeviation="80.2094"/>
<feColorMatrix type="matrix" values="0 0 0 0 0 0 0 0 0 0 0 0 0 0 0 0 0 0 0.09 0"/>
<feBlend mode="normal" in2="effect1_dropShadow_48_70" result="effect2_dropShadow_48_70"/>
<feColorMatrix in="SourceAlpha" type="matrix" values="0 0 0 0 0 0 0 0 0 0 0 0 0 0 0 0 0 0 127 0" result="hardAlpha"/>
<feOffset dy="362.686"/>
<feGaussianBlur stdDeviation="109.271"/>
<feColorMatrix type="matrix" values="0 0 0 0 0 0 0 0 0 0 0 0 0 0 0 0 0 0 0.05 0"/>
<feBlend mode="normal" in2="effect2_dropShadow_48_70" result="effect3_dropShadow_48_70"/>
<feColorMatrix in="SourceAlpha" type="matrix" values="0 0 0 0 0 0 0 0 0 0 0 0 0 0 0 0 0 0 127 0" result="hardAlpha"/>
<feOffset dy="644"/>
<feGaussianBlur stdDeviation="129.032"/>
<feColorMatrix type="matrix" values="0 0 0 0 0 0 0 0 0 0 0 0 0 0 0 0 0 0 0.01 0"/>
<feBlend mode="normal" in2="effect3_dropShadow_48_70" result="effect4_dropShadow_48_70"/>
<feBlend mode="normal" in="SourceGraphic" in2="effect4_dropShadow_48_70" result="shape"/>
</filter>
<linearGradient id="paint0_linear_48_70" x1="350.5" y1="49" x2="350.5" y2="103" gradientUnits="userSpaceOnUse">
<stop offset="0.336574" stop-color="#A7B4C9" stop-opacity="0.11"/>
<stop offset="0.475999" stop-color="#007BFF"/>
<stop offset="0.879849" stop-color="#8FC5FF"/>
</linearGradient>
</defs>
</svg>
