<svg width="1438" height="90" viewBox="0 0 1438 90" fill="none" xmlns="http://www.w3.org/2000/svg">
<rect width="1440" height="90" fill="#DEDEDE" fill-opacity="0.41"/>
<path d="M1246.95 43.5H1245.28C1245.15 42.8786 1244.93 42.3045 1244.6 41.7777C1244.28 41.245 1243.88 40.7804 1243.4 40.3839C1242.91 39.9873 1242.36 39.6796 1241.74 39.4606C1241.13 39.2416 1240.46 39.1321 1239.75 39.1321C1238.6 39.1321 1237.55 39.431 1236.6 40.0288C1235.66 40.6265 1234.91 41.5054 1234.34 42.6655C1233.78 43.8196 1233.5 45.2341 1233.5 46.9091C1233.5 48.5959 1233.78 50.0163 1234.34 51.1705C1234.91 52.3246 1235.66 53.2005 1236.6 53.7983C1237.55 54.3902 1238.6 54.6861 1239.75 54.6861C1240.46 54.6861 1241.13 54.5766 1241.74 54.3576C1242.36 54.1386 1242.91 53.8338 1243.4 53.4432C1243.88 53.0466 1244.28 52.582 1244.6 52.0494C1244.93 51.5167 1245.15 50.9396 1245.28 50.3182H1246.95C1246.8 51.1527 1246.52 51.931 1246.11 52.6531C1245.71 53.3692 1245.19 53.9966 1244.57 54.5352C1243.95 55.0737 1243.23 55.494 1242.42 55.7958C1241.61 56.0977 1240.72 56.2486 1239.75 56.2486C1238.22 56.2486 1236.86 55.8668 1235.68 55.1033C1234.5 54.3339 1233.57 53.2508 1232.89 51.854C1232.22 50.4573 1231.89 48.8089 1231.89 46.9091C1231.89 45.0092 1232.22 43.3609 1232.89 41.9641C1233.57 40.5674 1234.5 39.4872 1235.68 38.7237C1236.86 37.9543 1238.22 37.5696 1239.75 37.5696C1240.72 37.5696 1241.61 37.7205 1242.42 38.0224C1243.23 38.3183 1243.95 38.7385 1244.57 39.283C1245.19 39.8216 1245.71 40.449 1246.11 41.1651C1246.52 41.8813 1246.8 42.6596 1246.95 43.5ZM1255.82 56.2841C1254.64 56.2841 1253.6 55.9852 1252.69 55.3874C1251.79 54.7897 1251.09 53.964 1250.58 52.9105C1250.07 51.8511 1249.82 50.6289 1249.82 49.244C1249.82 47.8472 1250.07 46.6191 1250.58 45.5597C1251.09 44.4943 1251.79 43.6657 1252.69 43.0739C1253.6 42.4761 1254.64 42.1772 1255.82 42.1772C1257 42.1772 1258.03 42.4761 1258.93 43.0739C1259.83 43.6716 1260.54 44.5002 1261.05 45.5597C1261.56 46.6191 1261.82 47.8472 1261.82 49.244C1261.82 50.6289 1261.56 51.8511 1261.06 52.9105C1260.55 53.964 1259.84 54.7897 1258.93 55.3874C1258.03 55.9852 1257 56.2841 1255.82 56.2841ZM1255.82 54.837C1256.76 54.837 1257.57 54.5825 1258.22 54.0735C1258.88 53.5645 1259.38 52.8868 1259.71 52.0405C1260.06 51.1941 1260.23 50.262 1260.23 49.244C1260.23 48.226 1260.06 47.2908 1259.71 46.4386C1259.38 45.5863 1258.88 44.9027 1258.22 44.3878C1257.57 43.8729 1256.76 43.6154 1255.82 43.6154C1254.88 43.6154 1254.07 43.8729 1253.41 44.3878C1252.75 44.9027 1252.25 45.5863 1251.91 46.4386C1251.57 47.2908 1251.41 48.226 1251.41 49.244C1251.41 50.262 1251.57 51.1941 1251.91 52.0405C1252.25 52.8868 1252.75 53.5645 1253.41 54.0735C1254.07 54.5825 1254.87 54.837 1255.82 54.837ZM1266.87 47.4773V56H1265.29V42.3636H1266.82V44.5032H1266.97C1267.29 43.8048 1267.78 43.2455 1268.46 42.8253C1269.14 42.3991 1269.98 42.1861 1270.98 42.1861C1271.9 42.1861 1272.7 42.3784 1273.39 42.7631C1274.09 43.1419 1274.63 43.7012 1275.02 44.4411C1275.41 45.1809 1275.6 46.0894 1275.6 47.1665V56H1274.02V47.2642C1274.02 46.1456 1273.71 45.2608 1273.08 44.6097C1272.46 43.9587 1271.63 43.6332 1270.58 43.6332C1269.86 43.6332 1269.23 43.787 1268.67 44.0948C1268.11 44.4026 1267.67 44.8465 1267.35 45.4265C1267.03 46.0006 1266.87 46.6842 1266.87 47.4773ZM1285.14 42.3636V43.7397H1278.63V42.3636H1285.14ZM1280.66 39.0966H1282.25V52.44C1282.25 53.0082 1282.35 53.455 1282.54 53.7805C1282.74 54.1001 1282.99 54.328 1283.31 54.4641C1283.62 54.5943 1283.96 54.6594 1284.31 54.6594C1284.52 54.6594 1284.7 54.6476 1284.84 54.6239C1284.99 54.5943 1285.12 54.5647 1285.23 54.5352L1285.57 55.9645C1285.42 56.0237 1285.23 56.0769 1285 56.1243C1284.78 56.1776 1284.5 56.2042 1284.17 56.2042C1283.59 56.2042 1283.03 56.0769 1282.49 55.8224C1281.96 55.5679 1281.52 55.1892 1281.18 54.6861C1280.83 54.183 1280.66 53.5586 1280.66 52.8129V39.0966ZM1292.53 56.3107C1291.71 56.3107 1290.96 56.1509 1290.28 55.8313C1289.6 55.5058 1289.06 55.0382 1288.65 54.4286C1288.25 53.8131 1288.05 53.0674 1288.05 52.1914C1288.05 51.5167 1288.18 50.9485 1288.43 50.4869C1288.69 50.0252 1289.05 49.6464 1289.52 49.3505C1289.98 49.0546 1290.54 48.8208 1291.18 48.6491C1291.81 48.4775 1292.52 48.3443 1293.29 48.2496C1294.05 48.1549 1294.7 48.0721 1295.22 48.0011C1295.76 47.93 1296.16 47.8176 1296.44 47.6637C1296.72 47.5098 1296.86 47.2612 1296.86 46.918V46.5984C1296.86 45.6692 1296.58 44.9382 1296.02 44.4055C1295.47 43.867 1294.68 43.5977 1293.64 43.5977C1292.66 43.5977 1291.86 43.8137 1291.24 44.2457C1290.62 44.6778 1290.19 45.1868 1289.94 45.7727L1288.44 45.2312C1288.75 44.4854 1289.18 43.8906 1289.72 43.4467C1290.26 42.9969 1290.87 42.6744 1291.55 42.479C1292.22 42.2778 1292.91 42.1772 1293.6 42.1772C1294.12 42.1772 1294.66 42.2453 1295.22 42.3814C1295.79 42.5175 1296.32 42.7543 1296.8 43.0916C1297.29 43.4231 1297.68 43.8877 1297.99 44.4854C1298.29 45.0773 1298.44 45.829 1298.44 46.7404V56H1296.86V53.8427H1296.76C1296.57 54.2451 1296.29 54.6358 1295.92 55.0146C1295.54 55.3933 1295.08 55.7041 1294.51 55.9467C1293.95 56.1894 1293.29 56.3107 1292.53 56.3107ZM1292.75 54.8636C1293.59 54.8636 1294.32 54.6772 1294.93 54.3043C1295.55 53.9315 1296.02 53.4373 1296.35 52.8217C1296.69 52.2003 1296.86 51.5167 1296.86 50.771V48.8001C1296.74 48.9125 1296.54 49.0131 1296.26 49.1019C1295.99 49.1907 1295.67 49.2706 1295.31 49.3416C1294.96 49.4067 1294.6 49.4629 1294.25 49.5103C1293.89 49.5576 1293.57 49.5991 1293.29 49.6346C1292.52 49.7293 1291.86 49.8772 1291.32 50.0785C1290.77 50.2797 1290.36 50.5579 1290.07 50.913C1289.78 51.2622 1289.63 51.712 1289.63 52.2624C1289.63 53.091 1289.93 53.7332 1290.52 54.1889C1291.11 54.6387 1291.85 54.8636 1292.75 54.8636ZM1307.97 56.2841C1306.75 56.2841 1305.69 55.9793 1304.78 55.3697C1303.88 54.7601 1303.18 53.9255 1302.69 52.8661C1302.19 51.8067 1301.94 50.5993 1301.94 49.244C1301.94 47.8768 1302.19 46.6605 1302.69 45.5952C1303.2 44.5298 1303.91 43.6953 1304.81 43.0916C1305.71 42.482 1306.75 42.1772 1307.94 42.1772C1308.85 42.1772 1309.68 42.3548 1310.42 42.7099C1311.16 43.0591 1311.77 43.5533 1312.25 44.1925C1312.73 44.8258 1313.04 45.5656 1313.16 46.4119H1311.56C1311.4 45.6425 1311 44.9856 1310.37 44.4411C1309.74 43.8906 1308.94 43.6154 1307.97 43.6154C1307.1 43.6154 1306.33 43.8522 1305.66 44.3256C1304.99 44.7932 1304.47 45.4472 1304.09 46.2876C1303.72 47.1222 1303.53 48.0898 1303.53 49.1907C1303.53 50.2975 1303.71 51.277 1304.08 52.1293C1304.45 52.9756 1304.96 53.6385 1305.62 54.1179C1306.29 54.5973 1307.07 54.837 1307.97 54.837C1308.57 54.837 1309.12 54.7246 1309.62 54.4996C1310.12 54.2688 1310.54 53.9433 1310.88 53.5231C1311.22 53.1029 1311.45 52.6027 1311.57 52.0227H1313.17C1313.05 52.8454 1312.76 53.5793 1312.29 54.2244C1311.83 54.8636 1311.23 55.3667 1310.49 55.7337C1309.76 56.1006 1308.92 56.2841 1307.97 56.2841ZM1321.93 42.3636V43.7397H1315.42V42.3636H1321.93ZM1317.45 39.0966H1319.04V52.44C1319.04 53.0082 1319.14 53.455 1319.34 53.7805C1319.53 54.1001 1319.79 54.328 1320.1 54.4641C1320.41 54.5943 1320.75 54.6594 1321.1 54.6594C1321.31 54.6594 1321.49 54.6476 1321.64 54.6239C1321.78 54.5943 1321.91 54.5647 1322.03 54.5352L1322.36 55.9645C1322.21 56.0237 1322.02 56.0769 1321.8 56.1243C1321.57 56.1776 1321.29 56.2042 1320.96 56.2042C1320.38 56.2042 1319.82 56.0769 1319.28 55.8224C1318.75 55.5679 1318.31 55.1892 1317.97 54.6861C1317.63 54.183 1317.45 53.5586 1317.45 52.8129V39.0966ZM1341.21 50.7887V42.3636H1342.79V56H1341.21V53.7362H1341.09C1340.77 54.4345 1340.26 55.0175 1339.57 55.4851C1338.88 55.9467 1338.03 56.1776 1337.03 56.1776C1336.16 56.1776 1335.39 55.9882 1334.71 55.6094C1334.04 55.2247 1333.51 54.6624 1333.13 53.9226C1332.74 53.1828 1332.55 52.2743 1332.55 51.1971V42.3636H1334.13V51.0994C1334.13 52.1648 1334.44 53.023 1335.07 53.674C1335.7 54.3191 1336.5 54.6417 1337.48 54.6417C1338.1 54.6417 1338.69 54.4937 1339.26 54.1978C1339.83 53.9019 1340.3 53.4698 1340.66 52.9016C1341.03 52.3275 1341.21 51.6232 1341.21 50.7887ZM1356.14 45.3555L1354.69 45.7638C1354.55 45.3555 1354.35 44.9856 1354.09 44.6541C1353.83 44.3227 1353.49 44.0593 1353.07 43.864C1352.65 43.6687 1352.14 43.571 1351.52 43.571C1350.6 43.571 1349.84 43.79 1349.25 44.228C1348.66 44.666 1348.36 45.2312 1348.36 45.9237C1348.36 46.5096 1348.56 46.986 1348.97 47.353C1349.37 47.714 1350 48.0011 1350.85 48.2141L1352.91 48.7202C1354.05 48.9983 1354.91 49.4393 1355.47 50.043C1356.05 50.6467 1356.33 51.4042 1356.33 52.3157C1356.33 53.0851 1356.12 53.7687 1355.7 54.3665C1355.27 54.9643 1354.67 55.4348 1353.91 55.7781C1353.15 56.1154 1352.27 56.2841 1351.27 56.2841C1349.94 56.2841 1348.84 55.9852 1347.98 55.3874C1347.12 54.7837 1346.56 53.9137 1346.32 52.7773L1347.84 52.4045C1348.03 53.2153 1348.42 53.8279 1348.98 54.2422C1349.56 54.6565 1350.31 54.8636 1351.25 54.8636C1352.3 54.8636 1353.13 54.6299 1353.76 54.1623C1354.39 53.6888 1354.7 53.0969 1354.7 52.3867C1354.7 51.8363 1354.52 51.3746 1354.15 51.0018C1353.78 50.623 1353.23 50.3448 1352.48 50.1673L1350.25 49.6346C1349.07 49.3505 1348.19 48.9007 1347.63 48.2852C1347.06 47.6696 1346.77 46.9061 1346.77 45.9947C1346.77 45.243 1346.98 44.5831 1347.39 44.0149C1347.79 43.4408 1348.36 42.991 1349.07 42.6655C1349.79 42.34 1350.61 42.1772 1351.52 42.1772C1352.77 42.1772 1353.77 42.4613 1354.51 43.0295C1355.27 43.5917 1355.81 44.3671 1356.14 45.3555Z" fill="#003465"/>
<path d="M1118.26 43.5C1118.09 42.8963 1117.85 42.3311 1117.53 41.8043C1117.21 41.2717 1116.82 40.8071 1116.34 40.4105C1115.87 40.008 1115.33 39.6944 1114.72 39.4695C1114.11 39.2446 1113.43 39.1321 1112.68 39.1321C1111.49 39.1321 1110.43 39.4399 1109.5 40.0554C1108.56 40.6709 1107.82 41.5587 1107.28 42.7188C1106.74 43.8788 1106.47 45.2756 1106.47 46.9091C1106.47 48.5367 1106.74 49.9305 1107.29 51.0906C1107.83 52.2506 1108.58 53.1413 1109.52 53.7628C1110.48 54.3783 1111.57 54.6861 1112.79 54.6861C1113.91 54.6861 1114.9 54.4375 1115.76 53.9403C1116.61 53.4432 1117.28 52.733 1117.76 51.8097C1118.25 50.8864 1118.48 49.7885 1118.47 48.516L1119.01 48.6847H1113.18V47.1932H1120.09V48.6847C1120.09 50.2353 1119.77 51.5759 1119.15 52.7063C1118.52 53.8368 1117.66 54.7098 1116.56 55.3253C1115.47 55.9408 1114.21 56.2486 1112.79 56.2486C1111.2 56.2486 1109.82 55.8668 1108.63 55.1033C1107.44 54.3339 1106.51 53.2508 1105.85 51.854C1105.19 50.4513 1104.86 48.803 1104.86 46.9091C1104.86 45.4827 1105.05 44.1954 1105.43 43.0472C1105.81 41.899 1106.35 40.9165 1107.04 40.0998C1107.74 39.283 1108.56 38.6586 1109.52 38.2266C1110.47 37.7886 1111.52 37.5696 1112.68 37.5696C1113.67 37.5696 1114.58 37.7264 1115.4 38.0401C1116.23 38.3538 1116.96 38.7859 1117.59 39.3363C1118.22 39.8808 1118.74 40.5111 1119.14 41.2273C1119.55 41.9375 1119.82 42.6951 1119.96 43.5H1118.26ZM1127.69 56.3107C1126.87 56.3107 1126.12 56.1509 1125.44 55.8313C1124.75 55.5058 1124.21 55.0382 1123.81 54.4286C1123.41 53.8131 1123.21 53.0674 1123.21 52.1914C1123.21 51.5167 1123.33 50.9485 1123.59 50.4869C1123.84 50.0252 1124.2 49.6464 1124.67 49.3505C1125.14 49.0546 1125.69 48.8208 1126.33 48.6491C1126.97 48.4775 1127.68 48.3443 1128.44 48.2496C1129.21 48.1549 1129.85 48.0721 1130.38 48.0011C1130.91 47.93 1131.32 47.8176 1131.6 47.6637C1131.87 47.5098 1132.01 47.2612 1132.01 46.918V46.5984C1132.01 45.6692 1131.74 44.9382 1131.18 44.4055C1130.63 43.867 1129.84 43.5977 1128.8 43.5977C1127.82 43.5977 1127.02 43.8137 1126.39 44.2457C1125.78 44.6778 1125.35 45.1868 1125.1 45.7727L1123.6 45.2312C1123.91 44.4854 1124.33 43.8906 1124.88 43.4467C1125.42 42.9969 1126.03 42.6744 1126.7 42.479C1127.38 42.2778 1128.06 42.1772 1128.76 42.1772C1129.28 42.1772 1129.82 42.2453 1130.38 42.3814C1130.95 42.5175 1131.48 42.7543 1131.96 43.0916C1132.45 43.4231 1132.84 43.8877 1133.14 44.4854C1133.44 45.0773 1133.59 45.829 1133.59 46.7404V56H1132.01V53.8427H1131.92C1131.73 54.2451 1131.45 54.6358 1131.07 55.0146C1130.7 55.3933 1130.23 55.7041 1129.67 55.9467C1129.11 56.1894 1128.45 56.3107 1127.69 56.3107ZM1127.9 54.8636C1128.74 54.8636 1129.47 54.6772 1130.09 54.3043C1130.7 53.9315 1131.18 53.4373 1131.51 52.8217C1131.85 52.2003 1132.01 51.5167 1132.01 50.771V48.8001C1131.9 48.9125 1131.7 49.0131 1131.42 49.1019C1131.15 49.1907 1130.83 49.2706 1130.47 49.3416C1130.11 49.4067 1129.76 49.4629 1129.4 49.5103C1129.05 49.5576 1128.73 49.5991 1128.44 49.6346C1127.68 49.7293 1127.02 49.8772 1126.47 50.0785C1125.93 50.2797 1125.51 50.5579 1125.22 50.913C1124.93 51.2622 1124.79 51.712 1124.79 52.2624C1124.79 53.091 1125.08 53.7332 1125.68 54.1889C1126.27 54.6387 1127.01 54.8636 1127.9 54.8636ZM1139.38 37.8182V56H1137.8V37.8182H1139.38ZM1145.14 37.8182V56H1143.56V37.8182H1145.14ZM1154.83 56.2841C1153.56 56.2841 1152.46 55.9882 1151.53 55.3963C1150.6 54.7985 1149.88 53.9729 1149.37 52.9194C1148.87 51.86 1148.62 50.6407 1148.62 49.2617C1148.62 47.8886 1148.87 46.6694 1149.37 45.604C1149.88 44.5328 1150.58 43.6953 1151.48 43.0916C1152.38 42.482 1153.42 42.1772 1154.59 42.1772C1155.33 42.1772 1156.05 42.3133 1156.73 42.5856C1157.42 42.8519 1158.04 43.2633 1158.58 43.8196C1159.13 44.37 1159.57 45.0655 1159.89 45.9059C1160.21 46.7404 1160.37 47.7288 1160.37 48.8711V49.6523H1149.71V48.2585H1158.75C1158.75 47.3826 1158.57 46.5954 1158.22 45.897C1157.87 45.1927 1157.38 44.6364 1156.75 44.228C1156.13 43.8196 1155.41 43.6154 1154.59 43.6154C1153.73 43.6154 1152.97 43.8462 1152.31 44.3079C1151.66 44.7695 1151.14 45.3791 1150.77 46.1367C1150.4 46.8943 1150.21 47.7229 1150.21 48.6225V49.457C1150.21 50.5401 1150.4 51.4871 1150.77 52.2979C1151.15 53.1029 1151.68 53.7273 1152.38 54.1712C1153.07 54.6151 1153.89 54.837 1154.83 54.837C1155.48 54.837 1156.04 54.7364 1156.53 54.5352C1157.02 54.3339 1157.43 54.0646 1157.76 53.7273C1158.1 53.384 1158.36 53.0082 1158.53 52.5998L1160.03 53.0881C1159.82 53.6622 1159.48 54.1919 1159.01 54.6772C1158.54 55.1625 1157.95 55.5531 1157.25 55.8491C1156.55 56.1391 1155.75 56.2841 1154.83 56.2841ZM1163.85 56V42.3636H1165.38V44.4588H1165.5C1165.77 43.7723 1166.24 43.2189 1166.92 42.7987C1167.6 42.3725 1168.37 42.1594 1169.23 42.1594C1169.36 42.1594 1169.5 42.1624 1169.66 42.1683C1169.82 42.1742 1169.96 42.1802 1170.06 42.1861V43.793C1169.99 43.7811 1169.87 43.7634 1169.69 43.7397C1169.51 43.716 1169.32 43.7042 1169.11 43.7042C1168.4 43.7042 1167.77 43.8551 1167.21 44.157C1166.66 44.4529 1166.23 44.8642 1165.91 45.391C1165.59 45.9177 1165.43 46.5185 1165.43 47.1932V56H1163.85ZM1174.27 61.1136C1173.96 61.1136 1173.67 61.084 1173.4 61.0249C1173.12 60.9657 1172.91 60.9006 1172.75 60.8295L1173.17 59.4357C1173.71 59.6014 1174.19 59.6606 1174.61 59.6133C1175.03 59.5719 1175.4 59.3825 1175.73 59.0451C1176.06 58.7137 1176.35 58.2047 1176.6 57.5181L1177.1 56.1332L1172.08 42.3636H1173.8L1177.84 53.9137H1177.97L1182.02 42.3636H1183.73L1177.96 58.1573C1177.72 58.8143 1177.42 59.3617 1177.06 59.7997C1176.71 60.2436 1176.3 60.5721 1175.83 60.7852C1175.37 61.0041 1174.85 61.1136 1174.27 61.1136Z" fill="#003465"/>
<path d="M974.145 56V37.8182H984.692V39.3097H975.805V46.1545H984.132V47.646H975.805V54.5085H984.869V56H974.145ZM999.216 42.3636L994.235 56H992.549L987.568 42.3636H989.281L993.33 53.9137H993.454L997.502 42.3636H999.216ZM1007.33 56.2841C1006.06 56.2841 1004.96 55.9882 1004.03 55.3963C1003.1 54.7985 1002.38 53.9729 1001.87 52.9194C1001.37 51.86 1001.12 50.6407 1001.12 49.2617C1001.12 47.8886 1001.37 46.6694 1001.87 45.604C1002.38 44.5328 1003.08 43.6953 1003.98 43.0916C1004.88 42.482 1005.91 42.1772 1007.09 42.1772C1007.83 42.1772 1008.55 42.3133 1009.23 42.5856C1009.92 42.8519 1010.53 43.2633 1011.08 43.8196C1011.63 44.37 1012.06 45.0655 1012.38 45.9059C1012.7 46.7404 1012.86 47.7288 1012.86 48.8711V49.6523H1002.21V48.2585H1011.25C1011.25 47.3826 1011.07 46.5954 1010.71 45.897C1010.37 45.1927 1009.88 44.6364 1009.25 44.228C1008.63 43.8196 1007.91 43.6154 1007.09 43.6154C1006.23 43.6154 1005.47 43.8462 1004.81 44.3079C1004.15 44.7695 1003.64 45.3791 1003.27 46.1367C1002.9 46.8943 1002.71 47.7229 1002.71 48.6225V49.457C1002.71 50.5401 1002.89 51.4871 1003.27 52.2979C1003.65 53.1029 1004.18 53.7273 1004.87 54.1712C1005.57 54.6151 1006.39 54.837 1007.33 54.837C1007.98 54.837 1008.54 54.7364 1009.03 54.5352C1009.52 54.3339 1009.93 54.0646 1010.26 53.7273C1010.6 53.384 1010.85 53.0082 1011.03 52.5998L1012.53 53.0881C1012.32 53.6622 1011.98 54.1919 1011.5 54.6772C1011.04 55.1625 1010.45 55.5531 1009.75 55.8491C1009.05 56.1391 1008.24 56.2841 1007.33 56.2841ZM1017.93 47.4773V56H1016.35V42.3636H1017.88V44.5032H1018.02C1018.34 43.8048 1018.84 43.2455 1019.51 42.8253C1020.2 42.3991 1021.04 42.1861 1022.04 42.1861C1022.95 42.1861 1023.76 42.3784 1024.45 42.7631C1025.15 43.1419 1025.69 43.7012 1026.08 44.4411C1026.47 45.1809 1026.66 46.0894 1026.66 47.1665V56H1025.08V47.2642C1025.08 46.1456 1024.77 45.2608 1024.14 44.6097C1023.52 43.9587 1022.68 43.6332 1021.64 43.6332C1020.92 43.6332 1020.28 43.787 1019.73 44.0948C1019.17 44.4026 1018.73 44.8465 1018.41 45.4265C1018.09 46.0006 1017.93 46.6842 1017.93 47.4773ZM1036.19 42.3636V43.7397H1029.69V42.3636H1036.19ZM1031.72 39.0966H1033.31V52.44C1033.31 53.0082 1033.41 53.455 1033.6 53.7805C1033.8 54.1001 1034.05 54.328 1034.37 54.4641C1034.68 54.5943 1035.01 54.6594 1035.37 54.6594C1035.58 54.6594 1035.75 54.6476 1035.9 54.6239C1036.05 54.5943 1036.18 54.5647 1036.29 54.5352L1036.63 55.9645C1036.48 56.0237 1036.29 56.0769 1036.06 56.1243C1035.84 56.1776 1035.56 56.2042 1035.23 56.2042C1034.65 56.2042 1034.09 56.0769 1033.55 55.8224C1033.02 55.5679 1032.58 55.1892 1032.23 54.6861C1031.89 54.183 1031.72 53.5586 1031.72 52.8129V39.0966ZM1048.7 45.3555L1047.25 45.7638C1047.11 45.3555 1046.91 44.9856 1046.65 44.6541C1046.39 44.3227 1046.05 44.0593 1045.63 43.864C1045.21 43.6687 1044.7 43.571 1044.08 43.571C1043.16 43.571 1042.4 43.79 1041.81 44.228C1041.22 44.666 1040.92 45.2312 1040.92 45.9237C1040.92 46.5096 1041.13 46.986 1041.53 47.353C1041.94 47.714 1042.56 48.0011 1043.41 48.2141L1045.47 48.7202C1046.61 48.9983 1047.47 49.4393 1048.04 50.043C1048.61 50.6467 1048.9 51.4042 1048.9 52.3157C1048.9 53.0851 1048.68 53.7687 1048.26 54.3665C1047.83 54.9643 1047.24 55.4348 1046.47 55.7781C1045.71 56.1154 1044.84 56.2841 1043.84 56.2841C1042.5 56.2841 1041.41 55.9852 1040.54 55.3874C1039.68 54.7837 1039.12 53.9137 1038.88 52.7773L1040.4 52.4045C1040.6 53.2153 1040.98 53.8279 1041.55 54.2422C1042.12 54.6565 1042.87 54.8636 1043.81 54.8636C1044.86 54.8636 1045.69 54.6299 1046.32 54.1623C1046.95 53.6888 1047.26 53.0969 1047.26 52.3867C1047.26 51.8363 1047.08 51.3746 1046.71 51.0018C1046.35 50.623 1045.79 50.3448 1045.04 50.1673L1042.81 49.6346C1041.63 49.3505 1040.76 48.9007 1040.19 48.2852C1039.62 47.6696 1039.33 46.9061 1039.33 45.9947C1039.33 45.243 1039.54 44.5831 1039.95 44.0149C1040.36 43.4408 1040.92 42.991 1041.63 42.6655C1042.35 42.34 1043.17 42.1772 1044.08 42.1772C1045.33 42.1772 1046.33 42.4613 1047.08 43.0295C1047.83 43.5917 1048.37 44.3671 1048.7 45.3555Z" fill="#003465"/>
<path d="M671.21 37.8182H673.128L679.724 53.6562H679.884L686.48 37.8182H688.398V56H686.835V41.3249H686.693L680.559 56H679.049L672.915 41.3249H672.773V56H671.21V37.8182ZM708.138 46.9091C708.138 48.803 707.8 50.4513 707.125 51.854C706.451 53.2508 705.522 54.3339 704.338 55.1033C703.16 55.8668 701.805 56.2486 700.272 56.2486C698.739 56.2486 697.381 55.8668 696.197 55.1033C695.019 54.3339 694.093 53.2508 693.418 51.854C692.749 50.4513 692.415 48.803 692.415 46.9091C692.415 45.0152 692.749 43.3698 693.418 41.973C694.093 40.5703 695.022 39.4872 696.206 38.7237C697.389 37.9543 698.745 37.5696 700.272 37.5696C701.805 37.5696 703.16 37.9543 704.338 38.7237C705.522 39.4872 706.451 40.5703 707.125 41.973C707.8 43.3698 708.138 45.0152 708.138 46.9091ZM706.522 46.9091C706.522 45.2815 706.25 43.8877 705.705 42.7276C705.161 41.5617 704.418 40.6709 703.477 40.0554C702.536 39.4399 701.467 39.1321 700.272 39.1321C699.082 39.1321 698.017 39.4399 697.076 40.0554C696.135 40.6709 695.389 41.5587 694.839 42.7188C694.294 43.8788 694.022 45.2756 694.022 46.9091C694.022 48.5367 694.294 49.9305 694.839 51.0906C695.383 52.2506 696.126 53.1413 697.067 53.7628C698.008 54.3783 699.076 54.6861 700.272 54.6861C701.467 54.6861 702.536 54.3783 703.477 53.7628C704.424 53.1473 705.169 52.2595 705.714 51.0994C706.258 49.9335 706.528 48.5367 706.522 46.9091ZM724.271 37.8182H725.931V49.8565C725.931 51.0935 725.641 52.2003 725.061 53.1768C724.481 54.1475 723.673 54.9139 722.637 55.4762C721.607 56.0326 720.409 56.3107 719.042 56.3107C717.681 56.3107 716.482 56.0296 715.446 55.4673C714.41 54.9051 713.603 54.1386 713.023 53.168C712.443 52.1973 712.153 51.0935 712.153 49.8565V37.8182H713.813V49.7411C713.813 50.7058 714.029 51.567 714.461 52.3246C714.893 53.0762 715.5 53.6681 716.281 54.1001C717.068 54.5322 717.988 54.7482 719.042 54.7482C720.095 54.7482 721.016 54.5322 721.803 54.1001C722.59 53.6681 723.197 53.0762 723.623 52.3246C724.055 51.567 724.271 50.7058 724.271 49.7411V37.8182ZM742.324 56.2486C741.205 56.2486 740.229 56.0326 739.394 55.6005C738.56 55.1625 737.912 54.5677 737.45 53.8161C736.988 53.0644 736.758 52.2151 736.758 51.2681C736.758 50.5816 736.897 49.9631 737.175 49.4126C737.459 48.8563 737.867 48.3295 738.4 47.8324C738.933 47.3293 739.578 46.8085 740.335 46.2699L742.972 44.3079C743.599 43.8581 744.076 43.4171 744.401 42.9851C744.733 42.5471 744.898 42.0115 744.898 41.3782C744.898 40.7686 744.668 40.2241 744.206 39.7447C743.75 39.2594 743.158 39.0167 742.43 39.0167C741.921 39.0167 741.466 39.1439 741.063 39.3984C740.667 39.6529 740.35 39.9844 740.113 40.3928C739.883 40.7952 739.767 41.2184 739.767 41.6623C739.767 42.0766 739.874 42.4938 740.087 42.9141C740.3 43.3284 740.587 43.7663 740.948 44.228C741.309 44.6837 741.711 45.1868 742.155 45.7372L750.465 56H748.547L741.303 47.1133C740.693 46.3675 740.152 45.7017 739.678 45.1158C739.205 44.5239 738.832 43.9557 738.56 43.4112C738.287 42.8608 738.151 42.2719 738.151 41.6445C738.151 40.8692 738.332 40.1797 738.693 39.576C739.054 38.9664 739.551 38.487 740.184 38.1378C740.824 37.7886 741.554 37.614 742.377 37.614C743.218 37.614 743.946 37.7856 744.561 38.1289C745.183 38.4722 745.662 38.9279 745.999 39.4961C746.343 40.0643 746.514 40.6916 746.514 41.3782C746.514 42.2009 746.301 42.9289 745.875 43.5621C745.455 44.1954 744.842 44.8169 744.037 45.4265L740.735 47.8945C739.829 48.5752 739.208 49.2055 738.87 49.7855C738.533 50.3655 738.364 50.8597 738.364 51.2681C738.364 51.9073 738.53 52.4962 738.862 53.0348C739.193 53.5734 739.652 54.0054 740.238 54.331C740.829 54.6565 741.507 54.8222 742.271 54.8281C743.028 54.8222 743.741 54.6713 744.41 54.3754C745.079 54.0735 745.677 53.6444 746.204 53.0881C746.736 52.5317 747.162 51.8659 747.482 51.0906C747.807 50.3152 747.997 49.4511 748.05 48.4982L749.586 48.516C749.562 49.4925 749.429 50.3211 749.186 51.0018C748.95 51.6765 748.677 52.2328 748.37 52.6708C748.062 53.1088 747.793 53.4609 747.562 53.7273C747.497 53.8161 747.432 53.9048 747.367 53.9936C747.301 54.0824 747.233 54.1712 747.162 54.2599C746.57 54.911 745.834 55.4052 744.952 55.7425C744.076 56.0799 743.2 56.2486 742.324 56.2486ZM774.586 43.5H772.917C772.793 42.8786 772.568 42.3045 772.242 41.7777C771.923 41.245 771.52 40.7804 771.035 40.3839C770.55 39.9873 769.999 39.6796 769.384 39.4606C768.768 39.2416 768.102 39.1321 767.386 39.1321C766.238 39.1321 765.19 39.431 764.243 40.0288C763.302 40.6265 762.548 41.5054 761.979 42.6655C761.417 43.8196 761.136 45.2341 761.136 46.9091C761.136 48.5959 761.417 50.0163 761.979 51.1705C762.548 52.3246 763.302 53.2005 764.243 53.7983C765.19 54.3902 766.238 54.6861 767.386 54.6861C768.102 54.6861 768.768 54.5766 769.384 54.3576C769.999 54.1386 770.55 53.8338 771.035 53.4432C771.52 53.0466 771.923 52.582 772.242 52.0494C772.568 51.5167 772.793 50.9396 772.917 50.3182H774.586C774.438 51.1527 774.16 51.931 773.751 52.6531C773.349 53.3692 772.834 53.9966 772.207 54.5352C771.585 55.0737 770.869 55.494 770.058 55.7958C769.247 56.0977 768.357 56.2486 767.386 56.2486C765.859 56.2486 764.504 55.8668 763.32 55.1033C762.136 54.3339 761.207 53.2508 760.532 51.854C759.864 50.4573 759.529 48.8089 759.529 46.9091C759.529 45.0092 759.864 43.3609 760.532 41.9641C761.207 40.5674 762.136 39.4872 763.32 38.7237C764.504 37.9543 765.859 37.5696 767.386 37.5696C768.357 37.5696 769.247 37.7205 770.058 38.0224C770.869 38.3183 771.585 38.7385 772.207 39.283C772.834 39.8216 773.349 40.449 773.751 41.1651C774.16 41.8813 774.438 42.6596 774.586 43.5ZM783.457 56.2841C782.279 56.2841 781.238 55.9852 780.332 55.3874C779.433 54.7897 778.728 53.964 778.219 52.9105C777.71 51.8511 777.456 50.6289 777.456 49.244C777.456 47.8472 777.71 46.6191 778.219 45.5597C778.728 44.4943 779.433 43.6657 780.332 43.0739C781.238 42.4761 782.279 42.1772 783.457 42.1772C784.635 42.1772 785.674 42.4761 786.573 43.0739C787.473 43.6716 788.177 44.5002 788.686 45.5597C789.201 46.6191 789.459 47.8472 789.459 49.244C789.459 50.6289 789.204 51.8511 788.695 52.9105C788.186 53.964 787.479 54.7897 786.573 55.3874C785.674 55.9852 784.635 56.2841 783.457 56.2841ZM783.457 54.837C784.404 54.837 785.206 54.5825 785.863 54.0735C786.52 53.5645 787.017 52.8868 787.355 52.0405C787.698 51.1941 787.869 50.262 787.869 49.244C787.869 48.226 787.698 47.2908 787.355 46.4386C787.017 45.5863 786.52 44.9027 785.863 44.3878C785.206 43.8729 784.404 43.6154 783.457 43.6154C782.516 43.6154 781.714 43.8729 781.051 44.3878C780.394 44.9027 779.894 45.5863 779.551 46.4386C779.214 47.2908 779.045 48.226 779.045 49.244C779.045 50.262 779.214 51.1941 779.551 52.0405C779.894 52.8868 780.394 53.5645 781.051 54.0735C781.708 54.5825 782.51 54.837 783.457 54.837ZM794.508 37.8182V56H792.928V37.8182H794.508ZM800.27 37.8182V56H798.689V37.8182H800.27ZM808.26 56.3107C807.437 56.3107 806.685 56.1509 806.005 55.8313C805.324 55.5058 804.782 55.0382 804.38 54.4286C803.978 53.8131 803.776 53.0674 803.776 52.1914C803.776 51.5167 803.904 50.9485 804.158 50.4869C804.413 50.0252 804.774 49.6464 805.241 49.3505C805.709 49.0546 806.262 48.8208 806.901 48.6491C807.541 48.4775 808.245 48.3443 809.014 48.2496C809.778 48.1549 810.423 48.0721 810.95 48.0011C811.482 47.93 811.888 47.8176 812.166 47.6637C812.444 47.5098 812.583 47.2612 812.583 46.918V46.5984C812.583 45.6692 812.305 44.9382 811.749 44.4055C811.198 43.867 810.405 43.5977 809.369 43.5977C808.387 43.5977 807.585 43.8137 806.963 44.2457C806.348 44.6778 805.916 45.1868 805.667 45.7727L804.167 45.2312C804.475 44.4854 804.901 43.8906 805.445 43.4467C805.99 42.9969 806.599 42.6744 807.274 42.479C807.949 42.2778 808.633 42.1772 809.325 42.1772C809.846 42.1772 810.387 42.2453 810.95 42.3814C811.518 42.5175 812.045 42.7543 812.53 43.0916C813.015 43.4231 813.409 43.8877 813.711 44.4854C814.012 45.0773 814.163 45.829 814.163 46.7404V56H812.583V53.8427H812.485C812.296 54.2451 812.015 54.6358 811.642 55.0146C811.269 55.3933 810.802 55.7041 810.239 55.9467C809.677 56.1894 809.017 56.3107 808.26 56.3107ZM808.473 54.8636C809.313 54.8636 810.041 54.6772 810.657 54.3043C811.272 53.9315 811.746 53.4373 812.077 52.8217C812.414 52.2003 812.583 51.5167 812.583 50.771V48.8001C812.465 48.9125 812.266 49.0131 811.988 49.1019C811.716 49.1907 811.399 49.2706 811.038 49.3416C810.683 49.4067 810.328 49.4629 809.973 49.5103C809.618 49.5576 809.298 49.5991 809.014 49.6346C808.245 49.7293 807.588 49.8772 807.043 50.0785C806.499 50.2797 806.082 50.5579 805.792 50.913C805.502 51.2622 805.357 51.712 805.357 52.2624C805.357 53.091 805.653 53.7332 806.244 54.1889C806.836 54.6387 807.579 54.8636 808.473 54.8636ZM818.696 56V37.8182H820.285V44.9648H820.427C820.604 44.5565 820.859 44.1362 821.19 43.7042C821.528 43.2721 821.968 42.9111 822.513 42.6211C823.063 42.3252 823.756 42.1772 824.59 42.1772C825.709 42.1772 826.692 42.4731 827.538 43.065C828.384 43.6509 829.044 44.4736 829.518 45.533C829.991 46.5865 830.228 47.8146 830.228 49.2173C830.228 50.6259 829.991 51.86 829.518 52.9194C829.05 53.9788 828.393 54.8045 827.547 55.3963C826.706 55.9882 825.73 56.2841 824.617 56.2841C823.788 56.2841 823.096 56.1361 822.54 55.8402C821.989 55.5443 821.545 55.1803 821.208 54.7482C820.871 54.3103 820.61 53.8841 820.427 53.4698H820.231V56H818.696ZM820.258 49.1907C820.258 50.2915 820.421 51.2681 820.746 52.1204C821.078 52.9667 821.551 53.6326 822.167 54.1179C822.788 54.5973 823.54 54.837 824.422 54.837C825.327 54.837 826.094 54.5884 826.721 54.0913C827.348 53.5882 827.825 52.9105 828.15 52.0582C828.476 51.206 828.639 50.2501 828.639 49.1907C828.639 48.1431 828.476 47.1991 828.15 46.3587C827.831 45.5182 827.357 44.8524 826.73 44.3612C826.103 43.864 825.333 43.6154 824.422 43.6154C823.534 43.6154 822.779 43.8551 822.158 44.3345C821.542 44.808 821.072 45.465 820.746 46.3054C820.421 47.1399 820.258 48.1017 820.258 49.1907ZM838.999 56.2841C837.821 56.2841 836.78 55.9852 835.874 55.3874C834.975 54.7897 834.27 53.964 833.761 52.9105C833.252 51.8511 832.998 50.6289 832.998 49.244C832.998 47.8472 833.252 46.6191 833.761 45.5597C834.27 44.4943 834.975 43.6657 835.874 43.0739C836.78 42.4761 837.821 42.1772 838.999 42.1772C840.177 42.1772 841.216 42.4761 842.115 43.0739C843.015 43.6716 843.719 44.5002 844.228 45.5597C844.743 46.6191 845.001 47.8472 845.001 49.244C845.001 50.6289 844.746 51.8511 844.237 52.9105C843.728 53.964 843.021 54.7897 842.115 55.3874C841.216 55.9852 840.177 56.2841 838.999 56.2841ZM838.999 54.837C839.946 54.837 840.748 54.5825 841.405 54.0735C842.062 53.5645 842.559 52.8868 842.897 52.0405C843.24 51.1941 843.411 50.262 843.411 49.244C843.411 48.226 843.24 47.2908 842.897 46.4386C842.559 45.5863 842.062 44.9027 841.405 44.3878C840.748 43.8729 839.946 43.6154 838.999 43.6154C838.058 43.6154 837.256 43.8729 836.593 44.3878C835.936 44.9027 835.436 45.5863 835.093 46.4386C834.756 47.2908 834.587 48.226 834.587 49.244C834.587 50.262 834.756 51.1941 835.093 52.0405C835.436 52.8868 835.936 53.5645 836.593 54.0735C837.25 54.5825 838.052 54.837 838.999 54.837ZM848.47 56V42.3636H850.005V44.4588H850.121C850.393 43.7723 850.867 43.2189 851.541 42.7987C852.222 42.3725 852.991 42.1594 853.85 42.1594C853.98 42.1594 854.125 42.1624 854.285 42.1683C854.444 42.1742 854.578 42.1802 854.684 42.1861V43.793C854.613 43.7811 854.489 43.7634 854.311 43.7397C854.134 43.716 853.941 43.7042 853.734 43.7042C853.024 43.7042 852.391 43.8551 851.834 44.157C851.284 44.4529 850.849 44.8642 850.529 45.391C850.21 45.9177 850.05 46.5185 850.05 47.1932V56H848.47ZM861.189 56.3107C860.367 56.3107 859.615 56.1509 858.934 55.8313C858.254 55.5058 857.712 55.0382 857.31 54.4286C856.907 53.8131 856.706 53.0674 856.706 52.1914C856.706 51.5167 856.833 50.9485 857.088 50.4869C857.342 50.0252 857.703 49.6464 858.171 49.3505C858.638 49.0546 859.192 48.8208 859.831 48.6491C860.47 48.4775 861.175 48.3443 861.944 48.2496C862.707 48.1549 863.353 48.0721 863.879 48.0011C864.412 47.93 864.817 47.8176 865.096 47.6637C865.374 47.5098 865.513 47.2612 865.513 46.918V46.5984C865.513 45.6692 865.235 44.9382 864.678 44.4055C864.128 43.867 863.335 43.5977 862.299 43.5977C861.317 43.5977 860.515 43.8137 859.893 44.2457C859.278 44.6778 858.846 45.1868 858.597 45.7727L857.097 45.2312C857.404 44.4854 857.831 43.8906 858.375 43.4467C858.92 42.9969 859.529 42.6744 860.204 42.479C860.879 42.2778 861.562 42.1772 862.255 42.1772C862.775 42.1772 863.317 42.2453 863.879 42.3814C864.447 42.5175 864.974 42.7543 865.46 43.0916C865.945 43.4231 866.338 43.8877 866.64 44.4854C866.942 45.0773 867.093 45.829 867.093 46.7404V56H865.513V53.8427H865.415C865.226 54.2451 864.945 54.6358 864.572 55.0146C864.199 55.3933 863.731 55.7041 863.169 55.9467C862.607 56.1894 861.947 56.3107 861.189 56.3107ZM861.402 54.8636C862.243 54.8636 862.971 54.6772 863.586 54.3043C864.202 53.9315 864.675 53.4373 865.007 52.8217C865.344 52.2003 865.513 51.5167 865.513 50.771V48.8001C865.394 48.9125 865.196 49.0131 864.918 49.1019C864.646 49.1907 864.329 49.2706 863.968 49.3416C863.613 49.4067 863.258 49.4629 862.903 49.5103C862.548 49.5576 862.228 49.5991 861.944 49.6346C861.175 49.7293 860.518 49.8772 859.973 50.0785C859.429 50.2797 859.011 50.5579 858.721 50.913C858.431 51.2622 858.286 51.712 858.286 52.2624C858.286 53.091 858.582 53.7332 859.174 54.1889C859.766 54.6387 860.509 54.8636 861.402 54.8636ZM876.668 42.3636V43.7397H870.16V42.3636H876.668ZM872.193 39.0966H873.783V52.44C873.783 53.0082 873.88 53.455 874.076 53.7805C874.271 54.1001 874.525 54.328 874.839 54.4641C875.153 54.5943 875.487 54.6594 875.842 54.6594C876.049 54.6594 876.227 54.6476 876.375 54.6239C876.523 54.5943 876.653 54.5647 876.765 54.5352L877.103 55.9645C876.949 56.0237 876.76 56.0769 876.535 56.1243C876.31 56.1776 876.032 56.2042 875.7 56.2042C875.12 56.2042 874.561 56.0769 874.022 55.8224C873.49 55.5679 873.052 55.1892 872.708 54.6861C872.365 54.183 872.193 53.5586 872.193 52.8129V39.0966ZM880.274 56V42.3636H881.864V56H880.274ZM881.082 40.0199C880.757 40.0199 880.479 39.9104 880.248 39.6914C880.017 39.4665 879.902 39.1972 879.902 38.8835C879.902 38.5698 880.017 38.3035 880.248 38.0845C880.479 37.8596 880.757 37.7472 881.082 37.7472C881.408 37.7472 881.686 37.8596 881.917 38.0845C882.148 38.3035 882.263 38.5698 882.263 38.8835C882.263 39.1972 882.148 39.4665 881.917 39.6914C881.686 39.9104 881.408 40.0199 881.082 40.0199ZM891.343 56.2841C890.165 56.2841 889.123 55.9852 888.218 55.3874C887.318 54.7897 886.614 53.964 886.105 52.9105C885.596 51.8511 885.341 50.6289 885.341 49.244C885.341 47.8472 885.596 46.6191 886.105 45.5597C886.614 44.4943 887.318 43.6657 888.218 43.0739C889.123 42.4761 890.165 42.1772 891.343 42.1772C892.521 42.1772 893.559 42.4761 894.459 43.0739C895.359 43.6716 896.063 44.5002 896.572 45.5597C897.087 46.6191 897.344 47.8472 897.344 49.244C897.344 50.6289 897.09 51.8511 896.581 52.9105C896.072 53.964 895.365 54.7897 894.459 55.3874C893.559 55.9852 892.521 56.2841 891.343 56.2841ZM891.343 54.837C892.29 54.837 893.092 54.5825 893.749 54.0735C894.406 53.5645 894.903 52.8868 895.24 52.0405C895.584 51.1941 895.755 50.262 895.755 49.244C895.755 48.226 895.584 47.2908 895.24 46.4386C894.903 45.5863 894.406 44.9027 893.749 44.3878C893.092 43.8729 892.29 43.6154 891.343 43.6154C890.402 43.6154 889.6 43.8729 888.937 44.3878C888.28 44.9027 887.78 45.5863 887.437 46.4386C887.099 47.2908 886.931 48.226 886.931 49.244C886.931 50.262 887.099 51.1941 887.437 52.0405C887.78 52.8868 888.28 53.5645 888.937 54.0735C889.594 54.5825 890.396 54.837 891.343 54.837ZM902.394 47.4773V56H900.813V42.3636H902.349V44.5032H902.491C902.811 43.8048 903.308 43.2455 903.983 42.8253C904.663 42.3991 905.504 42.1861 906.504 42.1861C907.421 42.1861 908.226 42.3784 908.919 42.7631C909.617 43.1419 910.159 43.7012 910.543 44.4411C910.934 45.1809 911.129 46.0894 911.129 47.1665V56H909.549V47.2642C909.549 46.1456 909.235 45.2608 908.608 44.6097C907.987 43.9587 907.152 43.6332 906.105 43.6332C905.388 43.6332 904.752 43.787 904.196 44.0948C903.639 44.4026 903.199 44.8465 902.873 45.4265C902.553 46.0006 902.394 46.6842 902.394 47.4773Z" fill="#003465"/>
<path d="M393.893 37.8182H395.811L402.407 53.6562H402.567L409.163 37.8182H411.081V56H409.518V41.3249H409.376L403.242 56H401.732L395.598 41.3249H395.456V56H393.893V37.8182ZM419.395 56.3107C418.572 56.3107 417.821 56.1509 417.14 55.8313C416.459 55.5058 415.918 55.0382 415.515 54.4286C415.113 53.8131 414.912 53.0674 414.912 52.1914C414.912 51.5167 415.039 50.9485 415.293 50.4869C415.548 50.0252 415.909 49.6464 416.376 49.3505C416.844 49.0546 417.397 48.8208 418.037 48.6491C418.676 48.4775 419.38 48.3443 420.15 48.2496C420.913 48.1549 421.558 48.0721 422.085 48.0011C422.618 47.93 423.023 47.8176 423.301 47.6637C423.579 47.5098 423.718 47.2612 423.718 46.918V46.5984C423.718 45.6692 423.44 44.9382 422.884 44.4055C422.333 43.867 421.54 43.5977 420.505 43.5977C419.522 43.5977 418.72 43.8137 418.099 44.2457C417.483 44.6778 417.051 45.1868 416.803 45.7727L415.302 45.2312C415.61 44.4854 416.036 43.8906 416.581 43.4467C417.125 42.9969 417.735 42.6744 418.409 42.479C419.084 42.2778 419.768 42.1772 420.46 42.1772C420.981 42.1772 421.523 42.2453 422.085 42.3814C422.653 42.5175 423.18 42.7543 423.665 43.0916C424.15 43.4231 424.544 43.8877 424.846 44.4854C425.148 45.0773 425.299 45.829 425.299 46.7404V56H423.718V53.8427H423.621C423.431 54.2451 423.15 54.6358 422.777 55.0146C422.404 55.3933 421.937 55.7041 421.375 55.9467C420.812 56.1894 420.152 56.3107 419.395 56.3107ZM419.608 54.8636C420.448 54.8636 421.176 54.6772 421.792 54.3043C422.407 53.9315 422.881 53.4373 423.212 52.8217C423.55 52.2003 423.718 51.5167 423.718 50.771V48.8001C423.6 48.9125 423.402 49.0131 423.124 49.1019C422.851 49.1907 422.535 49.2706 422.174 49.3416C421.819 49.4067 421.463 49.4629 421.108 49.5103C420.753 49.5576 420.434 49.5991 420.15 49.6346C419.38 49.7293 418.723 49.8772 418.179 50.0785C417.634 50.2797 417.217 50.5579 416.927 50.913C416.637 51.2622 416.492 51.712 416.492 52.2624C416.492 53.091 416.788 53.7332 417.38 54.1889C417.971 54.6387 418.714 54.8636 419.608 54.8636ZM431.083 47.4773V56H429.502V42.3636H431.038V44.5032H431.18C431.5 43.8048 431.997 43.2455 432.672 42.8253C433.352 42.3991 434.193 42.1861 435.193 42.1861C436.11 42.1861 436.915 42.3784 437.608 42.7631C438.306 43.1419 438.848 43.7012 439.232 44.4411C439.623 45.1809 439.818 46.0894 439.818 47.1665V56H438.238V47.2642C438.238 46.1456 437.924 45.2608 437.297 44.6097C436.676 43.9587 435.841 43.6332 434.794 43.6332C434.077 43.6332 433.441 43.787 432.885 44.0948C432.328 44.4026 431.887 44.8465 431.562 45.4265C431.242 46.0006 431.083 46.6842 431.083 47.4773ZM447.788 56.3107C446.966 56.3107 446.214 56.1509 445.533 55.8313C444.853 55.5058 444.311 55.0382 443.909 54.4286C443.506 53.8131 443.305 53.0674 443.305 52.1914C443.305 51.5167 443.432 50.9485 443.687 50.4869C443.941 50.0252 444.302 49.6464 444.77 49.3505C445.238 49.0546 445.791 48.8208 446.43 48.6491C447.069 48.4775 447.774 48.3443 448.543 48.2496C449.307 48.1549 449.952 48.0721 450.478 48.0011C451.011 47.93 451.417 47.8176 451.695 47.6637C451.973 47.5098 452.112 47.2612 452.112 46.918V46.5984C452.112 45.6692 451.834 44.9382 451.277 44.4055C450.727 43.867 449.934 43.5977 448.898 43.5977C447.916 43.5977 447.114 43.8137 446.492 44.2457C445.877 44.6778 445.445 45.1868 445.196 45.7727L443.696 45.2312C444.004 44.4854 444.43 43.8906 444.974 43.4467C445.519 42.9969 446.128 42.6744 446.803 42.479C447.478 42.2778 448.161 42.1772 448.854 42.1772C449.375 42.1772 449.916 42.2453 450.478 42.3814C451.047 42.5175 451.573 42.7543 452.059 43.0916C452.544 43.4231 452.938 43.8877 453.239 44.4854C453.541 45.0773 453.692 45.829 453.692 46.7404V56H452.112V53.8427H452.014C451.825 54.2451 451.544 54.6358 451.171 55.0146C450.798 55.3933 450.33 55.7041 449.768 55.9467C449.206 56.1894 448.546 56.3107 447.788 56.3107ZM448.002 54.8636C448.842 54.8636 449.57 54.6772 450.185 54.3043C450.801 53.9315 451.274 53.4373 451.606 52.8217C451.943 52.2003 452.112 51.5167 452.112 50.771V48.8001C451.994 48.9125 451.795 49.0131 451.517 49.1019C451.245 49.1907 450.928 49.2706 450.567 49.3416C450.212 49.4067 449.857 49.4629 449.502 49.5103C449.147 49.5576 448.827 49.5991 448.543 49.6346C447.774 49.7293 447.117 49.8772 446.572 50.0785C446.028 50.2797 445.61 50.5579 445.32 50.913C445.03 51.2622 444.885 51.712 444.885 52.2624C444.885 53.091 445.181 53.7332 445.773 54.1889C446.365 54.6387 447.108 54.8636 448.002 54.8636ZM463.098 61.3977C462.169 61.3977 461.355 61.2764 460.657 61.0337C459.958 60.797 459.37 60.4715 458.89 60.0572C458.411 59.6429 458.038 59.1783 457.772 58.6634L459.068 57.8111C459.263 58.1544 459.523 58.4917 459.849 58.8232C460.18 59.1546 460.61 59.4298 461.136 59.6488C461.669 59.8678 462.323 59.9773 463.098 59.9773C464.306 59.9773 465.279 59.6754 466.019 59.0717C466.765 58.468 467.138 57.5299 467.138 56.2575V53.1857H466.996C466.812 53.6 466.549 54.0143 466.206 54.4286C465.862 54.837 465.412 55.1773 464.856 55.4496C464.306 55.7218 463.622 55.858 462.805 55.858C461.716 55.858 460.749 55.5887 459.902 55.0501C459.062 54.5115 458.399 53.7421 457.914 52.7418C457.434 51.7357 457.195 50.5372 457.195 49.1463C457.195 47.7673 457.428 46.554 457.896 45.5064C458.369 44.4588 459.029 43.642 459.876 43.0561C460.722 42.4702 461.707 42.1772 462.832 42.1772C463.666 42.1772 464.359 42.3252 464.909 42.6211C465.46 42.9111 465.901 43.2721 466.232 43.7042C466.57 44.1362 466.833 44.5565 467.022 44.9648H467.182V42.3636H468.727V56.3551C468.727 57.5092 468.481 58.4592 467.99 59.2049C467.499 59.9506 466.83 60.5011 465.984 60.8562C465.137 61.2172 464.175 61.3977 463.098 61.3977ZM462.992 54.4109C463.868 54.4109 464.616 54.2008 465.238 53.7805C465.859 53.3544 466.336 52.7448 466.667 51.9517C466.999 51.1586 467.164 50.2146 467.164 49.1197C467.164 48.0543 467.002 47.1103 466.676 46.2876C466.351 45.459 465.877 44.808 465.256 44.3345C464.64 43.8551 463.885 43.6154 462.992 43.6154C462.08 43.6154 461.311 43.861 460.684 44.3523C460.056 44.8435 459.583 45.5064 459.263 46.3409C458.943 47.1695 458.784 48.0958 458.784 49.1197C458.784 50.1613 458.946 51.0817 459.272 51.8807C459.597 52.6738 460.074 53.2952 460.701 53.745C461.329 54.1889 462.092 54.4109 462.992 54.4109ZM478.424 56.2841C477.151 56.2841 476.05 55.9882 475.121 55.3963C474.192 54.7985 473.473 53.9729 472.964 52.9194C472.461 51.86 472.209 50.6407 472.209 49.2617C472.209 47.8886 472.461 46.6694 472.964 45.604C473.473 44.5328 474.174 43.6953 475.068 43.0916C475.967 42.482 477.006 42.1772 478.184 42.1772C478.924 42.1772 479.637 42.3133 480.324 42.5856C481.01 42.8519 481.626 43.2633 482.17 43.8196C482.721 44.37 483.156 45.0655 483.475 45.9059C483.795 46.7404 483.955 47.7288 483.955 48.8711V49.6523H473.301V48.2585H482.339C482.339 47.3826 482.161 46.5954 481.806 45.897C481.457 45.1927 480.969 44.6364 480.341 44.228C479.72 43.8196 479.001 43.6154 478.184 43.6154C477.32 43.6154 476.559 43.8462 475.902 44.3079C475.245 44.7695 474.73 45.3791 474.358 46.1367C473.991 46.8943 473.804 47.7229 473.798 48.6225V49.457C473.798 50.5401 473.985 51.4871 474.358 52.2979C474.736 53.1029 475.272 53.7273 475.964 54.1712C476.657 54.6151 477.477 54.837 478.424 54.837C479.069 54.837 479.634 54.7364 480.119 54.5352C480.611 54.3339 481.022 54.0646 481.353 53.7273C481.691 53.384 481.945 53.0082 482.117 52.5998L483.617 53.0881C483.41 53.6622 483.07 54.1919 482.596 54.6772C482.129 55.1625 481.543 55.5531 480.838 55.8491C480.14 56.1391 479.335 56.2841 478.424 56.2841ZM487.437 56V42.3636H488.973V44.4588H489.115C489.387 43.7545 489.84 43.2011 490.473 42.7987C491.112 42.3903 491.879 42.1861 492.772 42.1861C493.714 42.1861 494.486 42.408 495.09 42.8519C495.699 43.2899 496.155 43.8936 496.457 44.663H496.572C496.88 43.9054 497.38 43.3047 498.073 42.8608C498.771 42.411 499.617 42.1861 500.612 42.1861C501.878 42.1861 502.878 42.5856 503.612 43.3846C504.346 44.1777 504.713 45.3377 504.713 46.8647V56H503.133V46.8647C503.133 45.7875 502.858 44.9796 502.307 44.4411C501.757 43.9025 501.032 43.6332 500.132 43.6332C499.091 43.6332 498.289 43.9528 497.726 44.592C497.164 45.2312 496.883 46.042 496.883 47.0245V56H495.267V46.7227C495.267 45.7994 495.01 45.0536 494.495 44.4854C493.98 43.9173 493.255 43.6332 492.32 43.6332C491.692 43.6332 491.127 43.787 490.624 44.0948C490.127 44.4026 489.733 44.8317 489.443 45.3821C489.159 45.9266 489.017 46.554 489.017 47.2642V56H487.437ZM514.41 56.2841C513.137 56.2841 512.037 55.9882 511.107 55.3963C510.178 54.7985 509.459 53.9729 508.95 52.9194C508.447 51.86 508.195 50.6407 508.195 49.2617C508.195 47.8886 508.447 46.6694 508.95 45.604C509.459 44.5328 510.16 43.6953 511.054 43.0916C511.954 42.482 512.992 42.1772 514.17 42.1772C514.91 42.1772 515.623 42.3133 516.31 42.5856C516.996 42.8519 517.612 43.2633 518.156 43.8196C518.707 44.37 519.142 45.0655 519.461 45.9059C519.781 46.7404 519.941 47.7288 519.941 48.8711V49.6523H509.287V48.2585H518.325C518.325 47.3826 518.148 46.5954 517.792 45.897C517.443 45.1927 516.955 44.6364 516.328 44.228C515.706 43.8196 514.987 43.6154 514.17 43.6154C513.306 43.6154 512.546 43.8462 511.889 44.3079C511.232 44.7695 510.717 45.3791 510.344 46.1367C509.977 46.8943 509.791 47.7229 509.785 48.6225V49.457C509.785 50.5401 509.971 51.4871 510.344 52.2979C510.723 53.1029 511.258 53.7273 511.951 54.1712C512.643 54.6151 513.463 54.837 514.41 54.837C515.055 54.837 515.62 54.7364 516.106 54.5352C516.597 54.3339 517.008 54.0646 517.34 53.7273C517.677 53.384 517.932 53.0082 518.103 52.5998L519.604 53.0881C519.396 53.6622 519.056 54.1919 518.583 54.6772C518.115 55.1625 517.529 55.5531 516.825 55.8491C516.126 56.1391 515.321 56.2841 514.41 56.2841ZM525.003 47.4773V56H523.423V42.3636H524.959V44.5032H525.101C525.421 43.8048 525.918 43.2455 526.593 42.8253C527.273 42.3991 528.114 42.1861 529.114 42.1861C530.031 42.1861 530.836 42.3784 531.529 42.7631C532.227 43.1419 532.769 43.7012 533.153 44.4411C533.544 45.1809 533.739 46.0894 533.739 47.1665V56H532.159V47.2642C532.159 46.1456 531.845 45.2608 531.218 44.6097C530.597 43.9587 529.762 43.6332 528.714 43.6332C527.998 43.6332 527.362 43.787 526.806 44.0948C526.249 44.4026 525.808 44.8465 525.483 45.4265C525.163 46.0006 525.003 46.6842 525.003 47.4773ZM543.272 42.3636V43.7397H536.764V42.3636H543.272ZM538.797 39.0966H540.387V52.44C540.387 53.0082 540.484 53.455 540.68 53.7805C540.875 54.1001 541.129 54.328 541.443 54.4641C541.757 54.5943 542.091 54.6594 542.446 54.6594C542.653 54.6594 542.831 54.6476 542.979 54.6239C543.127 54.5943 543.257 54.5647 543.369 54.5352L543.707 55.9645C543.553 56.0237 543.364 56.0769 543.139 56.1243C542.914 56.1776 542.636 56.2042 542.304 56.2042C541.724 56.2042 541.165 56.0769 540.626 55.8224C540.094 55.5679 539.656 55.1892 539.312 54.6861C538.969 54.183 538.797 53.5586 538.797 52.8129V39.0966ZM559.263 42.3636V43.7397H552.756V42.3636H559.263ZM554.789 39.0966H556.378V52.44C556.378 53.0082 556.475 53.455 556.671 53.7805C556.866 54.1001 557.121 54.328 557.434 54.4641C557.748 54.5943 558.082 54.6594 558.437 54.6594C558.645 54.6594 558.822 54.6476 558.97 54.6239C559.118 54.5943 559.248 54.5647 559.361 54.5352L559.698 55.9645C559.544 56.0237 559.355 56.0769 559.13 56.1243C558.905 56.1776 558.627 56.2042 558.295 56.2042C557.715 56.2042 557.156 56.0769 556.617 55.8224C556.085 55.5679 555.647 55.1892 555.304 54.6861C554.96 54.183 554.789 53.5586 554.789 52.8129V39.0966ZM568.219 56.2841C566.946 56.2841 565.845 55.9882 564.916 55.3963C563.987 54.7985 563.268 53.9729 562.759 52.9194C562.256 51.86 562.004 50.6407 562.004 49.2617C562.004 47.8886 562.256 46.6694 562.759 45.604C563.268 44.5328 563.969 43.6953 564.863 43.0916C565.762 42.482 566.801 42.1772 567.979 42.1772C568.719 42.1772 569.432 42.3133 570.118 42.5856C570.805 42.8519 571.421 43.2633 571.965 43.8196C572.515 44.37 572.95 45.0655 573.27 45.9059C573.59 46.7404 573.749 47.7288 573.749 48.8711V49.6523H563.096V48.2585H572.134C572.134 47.3826 571.956 46.5954 571.601 45.897C571.252 45.1927 570.764 44.6364 570.136 44.228C569.515 43.8196 568.796 43.6154 567.979 43.6154C567.115 43.6154 566.354 43.8462 565.697 44.3079C565.04 44.7695 564.525 45.3791 564.153 46.1367C563.786 46.8943 563.599 47.7229 563.593 48.6225V49.457C563.593 50.5401 563.78 51.4871 564.153 52.2979C564.531 53.1029 565.067 53.7273 565.759 54.1712C566.452 54.6151 567.272 54.837 568.219 54.837C568.864 54.837 569.429 54.7364 569.914 54.5352C570.405 54.3339 570.817 54.0646 571.148 53.7273C571.486 53.384 571.74 53.0082 571.912 52.5998L573.412 53.0881C573.205 53.6622 572.865 54.1919 572.391 54.6772C571.924 55.1625 571.338 55.5531 570.633 55.8491C569.935 56.1391 569.13 56.2841 568.219 56.2841ZM581.04 56.3107C580.218 56.3107 579.466 56.1509 578.785 55.8313C578.105 55.5058 577.563 55.0382 577.161 54.4286C576.758 53.8131 576.557 53.0674 576.557 52.1914C576.557 51.5167 576.684 50.9485 576.939 50.4869C577.193 50.0252 577.554 49.6464 578.022 49.3505C578.489 49.0546 579.043 48.8208 579.682 48.6491C580.321 48.4775 581.026 48.3443 581.795 48.2496C582.559 48.1549 583.204 48.0721 583.73 48.0011C584.263 47.93 584.668 47.8176 584.947 47.6637C585.225 47.5098 585.364 47.2612 585.364 46.918V46.5984C585.364 45.6692 585.086 44.9382 584.529 44.4055C583.979 43.867 583.186 43.5977 582.15 43.5977C581.168 43.5977 580.366 43.8137 579.744 44.2457C579.129 44.6778 578.697 45.1868 578.448 45.7727L576.948 45.2312C577.255 44.4854 577.682 43.8906 578.226 43.4467C578.771 42.9969 579.38 42.6744 580.055 42.479C580.73 42.2778 581.413 42.1772 582.106 42.1772C582.627 42.1772 583.168 42.2453 583.73 42.3814C584.299 42.5175 584.825 42.7543 585.311 43.0916C585.796 43.4231 586.19 43.8877 586.491 44.4854C586.793 45.0773 586.944 45.829 586.944 46.7404V56H585.364V53.8427H585.266C585.077 54.2451 584.796 54.6358 584.423 55.0146C584.05 55.3933 583.582 55.7041 583.02 55.9467C582.458 56.1894 581.798 56.3107 581.04 56.3107ZM581.253 54.8636C582.094 54.8636 582.822 54.6772 583.437 54.3043C584.053 53.9315 584.526 53.4373 584.858 52.8217C585.195 52.2003 585.364 51.5167 585.364 50.771V48.8001C585.246 48.9125 585.047 49.0131 584.769 49.1019C584.497 49.1907 584.18 49.2706 583.819 49.3416C583.464 49.4067 583.109 49.4629 582.754 49.5103C582.399 49.5576 582.079 49.5991 581.795 49.6346C581.026 49.7293 580.369 49.8772 579.824 50.0785C579.28 50.2797 578.862 50.5579 578.572 50.913C578.282 51.2622 578.137 51.712 578.137 52.2624C578.137 53.091 578.433 53.7332 579.025 54.1889C579.617 54.6387 580.36 54.8636 581.253 54.8636ZM591.148 56V42.3636H592.684V44.4588H592.826C593.098 43.7545 593.551 43.2011 594.184 42.7987C594.823 42.3903 595.59 42.1861 596.483 42.1861C597.424 42.1861 598.197 42.408 598.801 42.8519C599.41 43.2899 599.866 43.8936 600.168 44.663H600.283C600.591 43.9054 601.091 43.3047 601.783 42.8608C602.482 42.411 603.328 42.1861 604.323 42.1861C605.589 42.1861 606.589 42.5856 607.323 43.3846C608.057 44.1777 608.424 45.3377 608.424 46.8647V56H606.844V46.8647C606.844 45.7875 606.569 44.9796 606.018 44.4411C605.468 43.9025 604.743 43.6332 603.843 43.6332C602.801 43.6332 601.999 43.9528 601.437 44.592C600.875 45.2312 600.594 46.042 600.594 47.0245V56H598.978V46.7227C598.978 45.7994 598.721 45.0536 598.206 44.4854C597.691 43.9173 596.966 43.6332 596.031 43.6332C595.403 43.6332 594.838 43.787 594.335 44.0948C593.838 44.4026 593.444 44.8317 593.154 45.3821C592.87 45.9266 592.728 46.554 592.728 47.2642V56H591.148Z" fill="#003465"/>
<path d="M258.493 56H256.753L263.367 37.8182H265.142L271.756 56H270.016L264.317 39.9755H264.192L258.493 56ZM259.744 49.0309H268.764V50.5224H259.744V49.0309ZM274.872 56V37.8182H276.461V44.9648H276.603C276.781 44.5565 277.036 44.1362 277.367 43.7042C277.704 43.2721 278.145 42.9111 278.69 42.6211C279.24 42.3252 279.933 42.1772 280.767 42.1772C281.886 42.1772 282.868 42.4731 283.715 43.065C284.561 43.6509 285.221 44.4736 285.694 45.533C286.168 46.5865 286.405 47.8146 286.405 49.2173C286.405 50.6259 286.168 51.86 285.694 52.9194C285.227 53.9788 284.57 54.8045 283.723 55.3963C282.883 55.9882 281.907 56.2841 280.794 56.2841C279.965 56.2841 279.273 56.1361 278.716 55.8402C278.166 55.5443 277.722 55.1803 277.385 54.7482C277.047 54.3103 276.787 53.8841 276.603 53.4698H276.408V56H274.872ZM276.435 49.1907C276.435 50.2915 276.598 51.2681 276.923 52.1204C277.255 52.9667 277.728 53.6326 278.344 54.1179C278.965 54.5973 279.717 54.837 280.598 54.837C281.504 54.837 282.27 54.5884 282.898 54.0913C283.525 53.5882 284.002 52.9105 284.327 52.0582C284.653 51.206 284.815 50.2501 284.815 49.1907C284.815 48.1431 284.653 47.1991 284.327 46.3587C284.008 45.5182 283.534 44.8524 282.907 44.3612C282.279 43.864 281.51 43.6154 280.598 43.6154C279.711 43.6154 278.956 43.8551 278.335 44.3345C277.719 44.808 277.249 45.465 276.923 46.3054C276.598 47.1399 276.435 48.1017 276.435 49.1907ZM295.176 56.2841C293.998 56.2841 292.956 55.9852 292.051 55.3874C291.151 54.7897 290.447 53.964 289.938 52.9105C289.429 51.8511 289.174 50.6289 289.174 49.244C289.174 47.8472 289.429 46.6191 289.938 45.5597C290.447 44.4943 291.151 43.6657 292.051 43.0739C292.956 42.4761 293.998 42.1772 295.176 42.1772C296.354 42.1772 297.392 42.4761 298.292 43.0739C299.192 43.6716 299.896 44.5002 300.405 45.5597C300.92 46.6191 301.177 47.8472 301.177 49.244C301.177 50.6289 300.923 51.8511 300.414 52.9105C299.905 53.964 299.198 54.7897 298.292 55.3874C297.392 55.9852 296.354 56.2841 295.176 56.2841ZM295.176 54.837C296.123 54.837 296.925 54.5825 297.582 54.0735C298.239 53.5645 298.736 52.8868 299.073 52.0405C299.417 51.1941 299.588 50.262 299.588 49.244C299.588 48.226 299.417 47.2908 299.073 46.4386C298.736 45.5863 298.239 44.9027 297.582 44.3878C296.925 43.8729 296.123 43.6154 295.176 43.6154C294.235 43.6154 293.433 43.8729 292.77 44.3878C292.113 44.9027 291.613 45.5863 291.27 46.4386C290.932 47.2908 290.764 48.226 290.764 49.244C290.764 50.262 290.932 51.1941 291.27 52.0405C291.613 52.8868 292.113 53.5645 292.77 54.0735C293.427 54.5825 294.229 54.837 295.176 54.837ZM313.311 50.7887V42.3636H314.891V56H313.311V53.7362H313.187C312.867 54.4345 312.361 55.0175 311.669 55.4851C310.976 55.9467 310.13 56.1776 309.13 56.1776C308.26 56.1776 307.487 55.9882 306.813 55.6094C306.138 55.2247 305.608 54.6624 305.223 53.9226C304.839 53.1828 304.646 52.2743 304.646 51.1971V42.3636H306.227V51.0994C306.227 52.1648 306.54 53.023 307.168 53.674C307.795 54.3191 308.6 54.6417 309.582 54.6417C310.198 54.6417 310.79 54.4937 311.358 54.1978C311.926 53.9019 312.394 53.4698 312.761 52.9016C313.128 52.3275 313.311 51.6232 313.311 50.7887ZM324.446 42.3636V43.7397H317.939V42.3636H324.446ZM319.972 39.0966H321.561V52.44C321.561 53.0082 321.659 53.455 321.854 53.7805C322.049 54.1001 322.304 54.328 322.617 54.4641C322.931 54.5943 323.265 54.6594 323.621 54.6594C323.828 54.6594 324.005 54.6476 324.153 54.6239C324.301 54.5943 324.431 54.5647 324.544 54.5352L324.881 55.9645C324.727 56.0237 324.538 56.0769 324.313 56.1243C324.088 56.1776 323.81 56.2042 323.478 56.2042C322.898 56.2042 322.339 56.0769 321.801 55.8224C321.268 55.5679 320.83 55.1892 320.487 54.6861C320.143 54.183 319.972 53.5586 319.972 52.8129V39.0966Z" fill="#003465"/>
<path d="M128.808 56V37.8182H130.468V46.1545H140.784V37.8182H142.444V56H140.784V47.646H130.468V56H128.808ZM152.236 56.2841C151.059 56.2841 150.017 55.9852 149.111 55.3874C148.212 54.7897 147.508 53.964 146.999 52.9105C146.49 51.8511 146.235 50.6289 146.235 49.244C146.235 47.8472 146.49 46.6191 146.999 45.5597C147.508 44.4943 148.212 43.6657 149.111 43.0739C150.017 42.4761 151.059 42.1772 152.236 42.1772C153.414 42.1772 154.453 42.4761 155.353 43.0739C156.252 43.6716 156.957 44.5002 157.466 45.5597C157.98 46.6191 158.238 47.8472 158.238 49.244C158.238 50.6289 157.983 51.8511 157.474 52.9105C156.965 53.964 156.258 54.7897 155.353 55.3874C154.453 55.9852 153.414 56.2841 152.236 56.2841ZM152.236 54.837C153.183 54.837 153.985 54.5825 154.642 54.0735C155.299 53.5645 155.796 52.8868 156.134 52.0405C156.477 51.1941 156.649 50.262 156.649 49.244C156.649 48.226 156.477 47.2908 156.134 46.4386C155.796 45.5863 155.299 44.9027 154.642 44.3878C153.985 43.8729 153.183 43.6154 152.236 43.6154C151.295 43.6154 150.493 43.8729 149.831 44.3878C149.174 44.9027 148.673 45.5863 148.33 46.4386C147.993 47.2908 147.824 48.226 147.824 49.244C147.824 50.262 147.993 51.1941 148.33 52.0405C148.673 52.8868 149.174 53.5645 149.831 54.0735C150.488 54.5825 151.289 54.837 152.236 54.837ZM161.707 56V42.3636H163.243V44.4588H163.385C163.657 43.7545 164.11 43.2011 164.743 42.7987C165.382 42.3903 166.149 42.1861 167.042 42.1861C167.984 42.1861 168.756 42.408 169.36 42.8519C169.969 43.2899 170.425 43.8936 170.727 44.663H170.842C171.15 43.9054 171.65 43.3047 172.343 42.8608C173.041 42.411 173.887 42.1861 174.882 42.1861C176.148 42.1861 177.148 42.5856 177.882 43.3846C178.616 44.1777 178.983 45.3377 178.983 46.8647V56H177.403V46.8647C177.403 45.7875 177.128 44.9796 176.577 44.4411C176.027 43.9025 175.302 43.6332 174.402 43.6332C173.361 43.6332 172.559 43.9528 171.996 44.592C171.434 45.2312 171.153 46.042 171.153 47.0245V56H169.537V46.7227C169.537 45.7994 169.28 45.0536 168.765 44.4854C168.25 43.9173 167.525 43.6332 166.59 43.6332C165.962 43.6332 165.397 43.787 164.894 44.0948C164.397 44.4026 164.003 44.8317 163.713 45.3821C163.429 45.9266 163.287 46.554 163.287 47.2642V56H161.707ZM188.68 56.2841C187.408 56.2841 186.307 55.9882 185.377 55.3963C184.448 54.7985 183.729 53.9729 183.22 52.9194C182.717 51.86 182.466 50.6407 182.466 49.2617C182.466 47.8886 182.717 46.6694 183.22 45.604C183.729 44.5328 184.43 43.6953 185.324 43.0916C186.224 42.482 187.263 42.1772 188.44 42.1772C189.18 42.1772 189.893 42.3133 190.58 42.5856C191.266 42.8519 191.882 43.2633 192.426 43.8196C192.977 44.37 193.412 45.0655 193.731 45.9059C194.051 46.7404 194.211 47.7288 194.211 48.8711V49.6523H183.557V48.2585H192.595C192.595 47.3826 192.418 46.5954 192.062 45.897C191.713 45.1927 191.225 44.6364 190.598 44.228C189.976 43.8196 189.257 43.6154 188.44 43.6154C187.576 43.6154 186.816 43.8462 186.159 44.3079C185.502 44.7695 184.987 45.3791 184.614 46.1367C184.247 46.8943 184.061 47.7229 184.055 48.6225V49.457C184.055 50.5401 184.241 51.4871 184.614 52.2979C184.993 53.1029 185.528 53.7273 186.221 54.1712C186.913 54.6151 187.733 54.837 188.68 54.837C189.325 54.837 189.89 54.7364 190.376 54.5352C190.867 54.3339 191.278 54.0646 191.61 53.7273C191.947 53.384 192.202 53.0082 192.373 52.5998L193.874 53.0881C193.666 53.6622 193.326 54.1919 192.853 54.6772C192.385 55.1625 191.799 55.5531 191.095 55.8491C190.396 56.1391 189.591 56.2841 188.68 56.2841Z" fill="#003465"/>
</svg>
